<?xml version="1.0" encoding="utf-8"?>
<!-- Generator: Adobe Illustrator 19.0.0, SVG Export Plug-In . SVG Version: 6.00 Build 0)  -->
<svg version="1.1" id="isotipo" xmlns="http://www.w3.org/2000/svg" xmlns:xlink="http://www.w3.org/1999/xlink" x="0px" y="0px"
	 viewBox="0 0 245.1 320" style="enable-background:new 0 0 245.1 320;" xml:space="preserve">
<style type="text/css">
	.st0{fill:none;}
	.st1{fill-rule:evenodd;clip-rule:evenodd;fill:#FFFFFF;}
	.st2{fill:#FFFFFF;}
</style>
<g>
	<rect y="1" class="st0" width="245.1" height="318.1"/>
	<g>
		<path class="st1" d="M69.9,278.9l-9.1,8.6l3.7-12c-1.2-0.3-2.4-0.6-3.7-0.6c-7,0-12.6,5.6-12.6,12.6c0,7,5.6,12.6,12.6,12.6
			c6.9,0,12.6-5.6,12.6-12.6C73.4,284.2,72,281.2,69.9,278.9L69.9,278.9z"/>
		<path class="st1" d="M187.4,278.9l-9.1,8.6l3.7-12c-1.2-0.3-2.4-0.6-3.7-0.6c-7,0-12.6,5.6-12.6,12.6c0,7,5.6,12.6,12.6,12.6
			c6.9,0,12.6-5.6,12.6-12.6C190.9,284.2,189.5,281.2,187.4,278.9L187.4,278.9z"/>
		<path class="st1" d="M44.2,57C-15.2,95.2-1.5,229.4,10.5,296.6c3.5-39.7,1.7-74,5.1-73.5c2.3,0.3,13,15.7,17.2,16.3
			c1.4-11.1,6.9-55.4,7.8-57.5c4.4-0.2,52.1,46.1,55.3,47c-1.3-11.2-9.1-37.8-9-42.4c5.6-0.3,62.3,29.3,69.1,32.6
			c3.2,1.5,4.8,2.7,6.5,2.5c0.4-5.8-15-32.9-15.8-40.1c-1.3-10.7,51.6,40.7,60.6,40c0.2-4.9-2.9-24,3.1-23.9c2.8,6,22.5,36,21,49.8
			c-0.3,12.5,0.7,28.7-0.7,46.9c4-2.5,32.7-140.5-3.7-158c-3.7-9.1-26.5-75.3-34.2-75.5c-0.7,5.5-5.4,19.1-7.5,19.8
			c-2.2,0.8-12.5-53.2-41.6-61.4l0.1,17.1c-5.7,0.3-17.5-31.2-22-36.3C92.9,0.7,56.9,115.5,44.2,57L44.2,57z"/>
		<path class="st2" d="M164.5,241.4v10c-0.3,0-0.6,0-1.1-0.1c-0.5,0-0.9-0.1-1.1-0.1c-3.4,0-5.8,0.5-7,1.5c-1.2,1-1.8,3-1.8,6.1v10
			c0,3.9-0.8,6.6-2.4,8.3c-1.7,1.7-4.6,2.8-8.8,3.5c4.3,0.7,7.2,1.8,8.8,3.4c1.6,1.7,2.4,4.4,2.4,8.3v10.1c0,3,0.6,5,1.8,6
			c1.2,1,3.5,1.5,6.9,1.5c0.3,0,0.7-0.1,1.2-0.1c0.5-0.1,0.9-0.1,1.2-0.1v10c-0.6,0-1.3,0.1-2.3,0.1c-0.9,0.1-1.7,0.1-2.1,0.1
			c-3.8,0-7-0.2-9.6-0.5c-2.5-0.3-4.7-0.9-6.4-1.6c-2.1-0.9-3.5-2.1-4.4-3.7c-0.8-1.6-1.3-4.3-1.3-8v-10.6c0-3.7-0.8-6.3-2.6-7.8
			c-1.8-1.5-4.8-2.3-9-2.3c-0.1,0-0.4,0.1-0.9,0.1c-0.5,0.1-0.8,0.1-1.1,0.1v-10c0.2,0,0.6,0,1,0c0.4,0.1,0.7,0.1,0.9,0.1
			c4.2,0,7.1-0.8,9-2.3c1.7-1.5,2.6-4.1,2.6-7.8v-10.5c0-3.8,0.4-6.4,1.3-8c0.9-1.6,2.3-2.8,4.4-3.7c1.7-0.7,3.9-1.2,6.4-1.6
			c2.6-0.3,5.8-0.5,9.6-0.5c0.4,0,1.1,0,2,0.1C163.2,241.4,164,241.4,164.5,241.4L164.5,241.4z"/>
		<path class="st2" d="M80,241.4c0.5,0,1.2-0.1,2.2-0.1c0.9-0.1,1.7-0.1,2-0.1c3.8,0,7,0.2,9.6,0.5c2.5,0.3,4.7,0.8,6.4,1.6
			c2,0.9,3.5,2.1,4.4,3.7c0.9,1.6,1.3,4.3,1.3,8v10.5c0,3.7,0.9,6.3,2.6,7.9c1.8,1.5,4.8,2.3,9,2.3c0.2,0,0.6,0,0.9-0.1
			c0.4,0,0.8,0,1,0v10c-0.2,0-0.6,0-1-0.1c-0.4,0-0.7-0.1-0.9-0.1c-4.2,0-7.2,0.8-9,2.3c-1.7,1.6-2.6,4.2-2.6,7.8v10.6
			c0,3.8-0.4,6.5-1.3,8c-0.8,1.6-2.3,2.8-4.4,3.7c-1.6,0.7-3.6,1.2-6,1.5c-2.4,0.3-5.5,0.5-9.4,0.5c-0.5,0-1.3,0-2.3-0.1
			c-1.1,0-1.9-0.1-2.4-0.1v-10c0.3,0,0.7,0,1.2,0.1c0.5,0,0.8,0.1,1.1,0.1c3.4,0,5.8-0.5,6.9-1.4c1.2-1,1.8-3,1.8-6v-10.1
			c0-3.9,0.8-6.6,2.5-8.3c1.6-1.7,4.5-2.8,8.7-3.5c-4.3-0.7-7.2-1.8-8.8-3.5c-1.6-1.6-2.4-4.4-2.4-8.3v-10c0-3.1-0.6-5.1-1.8-6.1
			c-1.2-1-3.4-1.5-6.7-1.5c-0.3,0-0.7,0.1-1.2,0.1c-0.6,0.1-1,0.1-1.3,0.1V241.4z"/>
		<path class="st2" d="M72,241.4v10c-0.2,0-33.3,0-33.7-0.1c-0.4,0-0.7-0.1-0.9-0.1c-3,0-5,0.5-6,1.5c-1.1,1-1.6,3-1.6,6.1
			c0,14.5,0,29,0,43.6c0,3,0.6,5,1.6,6c1.1,1,3,1.5,6,1.5c0.2,0,0.6-0.1,1-0.1c0.4-0.1,33.6-0.1,33.8-0.1v10
			c-0.4,0-33.9,0.1-34.7,0.1c-0.8,0.1-1.4,0.1-1.8,0.1c-3.3,0-6-0.2-8.3-0.5s-4-0.9-5.5-1.6c-1.8-0.9-3.1-2.1-3.8-3.7
			c-0.7-1.6-1.1-4.3-1.1-8c0-17.1,0-34.2,0-51.2c0-3.8,0.3-6.4,1.1-8c0.8-1.6,2-2.8,3.8-3.7c1.4-0.7,3.3-1.2,5.5-1.6
			c2.2-0.3,5-0.5,8.3-0.5c0.3,0,0.9,0,1.8,0.1C38.2,241.4,71.6,241.4,72,241.4L72,241.4z"/>
		<path class="st2" d="M171.4,241.4v10c0.2,0,33.3,0,33.8-0.1c0.4,0,0.7-0.1,0.9-0.1c3,0,5,0.5,6.1,1.5c1.1,1,1.6,3,1.6,6.1
			c0,14.5,0,29,0,43.6c0,3-0.5,5-1.6,6c-1,1-3,1.5-6,1.5c-0.2,0-0.6-0.1-1-0.1c-0.4-0.1-33.6-0.1-33.8-0.1v10
			c0.4,0,33.9,0.1,34.7,0.1c0.8,0.1,1.4,0.1,1.8,0.1c3.3,0,6.1-0.2,8.3-0.5c2.2-0.3,4-0.9,5.5-1.6c1.8-0.9,3-2.1,3.8-3.7
			c0.7-1.6,1.1-4.3,1.1-8c0-17.1,0-34.2,0-51.2c0-3.8-0.4-6.4-1.1-8c-0.7-1.6-2-2.8-3.8-3.7c-1.5-0.7-3.3-1.2-5.5-1.6
			c-2.2-0.3-5-0.5-8.3-0.5c-0.4,0-1,0-1.8,0.1C205.3,241.4,171.9,241.4,171.4,241.4L171.4,241.4z"/>
	</g>
</g>
</svg>
